<?xml version="1.0" standalone="no"?>
<!DOCTYPE svg PUBLIC "-//W3C//DTD SVG 20010904//EN"
 "http://www.w3.org/TR/2001/REC-SVG-20010904/DTD/svg10.dtd">
<svg version="1.0" xmlns="http://www.w3.org/2000/svg"
 width="200.000000pt" height="200.000000pt" viewBox="0 0 200.000000 200.000000"
 preserveAspectRatio="xMidYMid meet">
<metadata>
Created by potrace 1.11, written by Peter Selinger 2001-2013
</metadata>
<g transform="translate(0.000000,200.000000) scale(0.100000,-0.100000)"
fill="#000000" stroke="none">
<path d="M860 1825 c-281 -59 -517 -267 -605 -535 -33 -102 -44 -178 -41 -290
4 -122 27 -212 82 -325 81 -165 203 -288 369 -369 113 -56 203 -78 330 -82
572 -18 971 528 790 1078 -70 210 -251 397 -468 482 -136 54 -320 70 -457 41z
m369 -55 c121 -34 262 -117 344 -202 85 -87 162 -229 197 -359 28 -110 22
-294 -14 -404 -109 -335 -420 -555 -761 -540 -106 5 -128 9 -215 37 -306 99
-516 384 -525 711 -9 373 245 691 616 772 91 19 264 12 358 -15z"/>
<path d="M915 1724 c-54 -9 -169 -46 -216 -69 -41 -21 -131 -87 -170 -125 -68
-65 -132 -172 -169 -280 -28 -81 -36 -266 -16 -350 60 -245 213 -422 443 -513
72 -28 177 -44 266 -40 295 13 547 210 631 493 21 70 34 260 18 260 -7 0 -12
-9 -12 -20 0 -17 -7 -20 -50 -20 -27 0 -50 -4 -50 -10 0 -5 23 -10 51 -10 l52
0 -7 -71 c-11 -123 -67 -259 -148 -362 l-30 -38 -31 33 c-19 19 -32 27 -35 19
-2 -6 8 -23 22 -38 14 -14 23 -29 20 -34 -3 -5 -30 -28 -61 -50 -101 -75 -249
-129 -355 -129 l-48 0 0 39 c0 22 -4 43 -10 46 -6 4 -10 -12 -10 -39 0 -45 -1
-46 -32 -46 -51 0 -152 27 -220 58 -70 32 -188 116 -188 133 0 6 11 20 25 31
14 11 22 24 19 30 -4 5 -19 -2 -36 -19 l-29 -28 -34 40 c-75 87 -138 240 -151
367 l-6 58 36 0 c20 0 36 5 36 10 0 6 -16 10 -36 10 l-36 0 6 52 c18 145 71
266 166 377 l21 24 22 -22 c35 -32 56 -26 24 7 l-27 28 27 26 c74 70 230 137
356 153 l57 6 0 -35 c0 -20 5 -36 10 -36 6 0 10 16 10 35 l0 34 49 -4 c139
-12 269 -65 370 -149 l40 -33 -29 -28 c-16 -16 -27 -32 -24 -37 4 -6 20 4 38
21 l31 30 39 -47 c21 -26 52 -71 68 -99 32 -57 38 -62 38 -35 0 22 -67 125
-117 178 -86 93 -209 167 -330 200 -59 16 -224 26 -278 18z"/>
<path d="M997 1573 c-4 -3 -7 -107 -7 -229 0 -206 -2 -226 -20 -256 -11 -18
-20 -44 -20 -58 0 -19 -35 -60 -140 -165 -77 -77 -139 -147 -138 -155 8 -41
43 -18 181 118 134 132 144 140 174 135 27 -4 38 0 62 26 l28 30 144 3 c128 3
144 5 147 21 3 16 -9 17 -146 17 -82 0 -151 3 -155 6 -13 14 21 45 65 60 52
17 98 63 98 98 0 27 -34 66 -58 66 -30 0 -101 -58 -103 -84 -2 -32 -10 -49
-30 -67 -48 -41 -49 -36 -49 211 0 185 -3 230 -13 230 -8 0 -17 -3 -20 -7z
m237 -319 c9 -8 16 -22 16 -30 0 -24 -54 -75 -83 -78 -15 -1 -38 -13 -52 -26
-14 -13 -28 -20 -32 -16 -4 4 3 15 16 25 13 10 25 29 27 42 1 13 3 27 3 31 2
13 63 68 77 68 7 0 20 -7 28 -16z m-164 -174 c51 -51 -16 -131 -73 -87 -28 21
-32 62 -8 86 26 26 55 27 81 1z m-230 -235 c-74 -74 -139 -135 -145 -135 -5 0
53 63 130 140 76 76 141 137 144 134 3 -2 -55 -65 -129 -139z"/>
<path d="M1668 1204 c-7 -7 3 -53 13 -60 5 -3 9 8 9 25 0 28 -11 46 -22 35z"/>
</g>
</svg>
